<?xml version="1.0" encoding="UTF-8" standalone="no"?>
<svg width="27px" height="32px" viewBox="0 0 27 32" version="1.1" xmlns="http://www.w3.org/2000/svg" xmlns:xlink="http://www.w3.org/1999/xlink" xmlns:sketch="http://www.bohemiancoding.com/sketch/ns">
    <!-- Generator: Sketch 3.3.3 (12072) - http://www.bohemiancoding.com/sketch -->
    <title>New Build/build-faq-32</title>
    <desc>Created with Sketch.</desc>
    <defs></defs>
    <g id="icons" stroke="none" stroke-width="1" fill="none" fill-rule="evenodd" sketch:type="MSPage">
        <g id="New-Build/build-faq-32" sketch:type="MSArtboardGroup" fill="#C9CDCF">
            <path d="M1.755,21.17 L1.755,16.85 L6.75,16.85 L6.75,15.305 L1.755,15.305 L1.755,12.71 L6.855,12.71 L6.855,11.165 L0,11.165 L0,21.17 L1.755,21.17 Z M16.83,21.17 L12.9,11.165 L10.71,11.165 L6.78,21.17 L8.775,21.17 L9.51,19.25 L14.1,19.25 L14.835,21.17 L16.83,21.17 Z M13.605,17.705 L10.005,17.705 L11.805,12.935 L13.605,17.705 Z M22.065,21.35 C23.01,21.35 23.865,21.14 24.585,20.75 L25.455,21.725 L26.67,20.705 L25.845,19.775 C26.685,18.86 27.18,17.615 27.18,16.175 C27.18,13.19 25.065,11 22.065,11 C19.065,11 16.95,13.19 16.95,16.175 C16.95,19.16 19.065,21.35 22.065,21.35 L22.065,21.35 Z M22.065,19.79 C20.04,19.79 18.75,18.23 18.75,16.175 C18.75,14.105 20.04,12.56 22.065,12.56 C24.075,12.56 25.38,14.105 25.38,16.175 C25.38,17.06 25.14,17.87 24.69,18.485 L23.46,17.075 L22.245,18.08 L23.475,19.49 C23.055,19.685 22.59,19.79 22.065,19.79 L22.065,19.79 Z" id="FAQ" sketch:type="MSShapeGroup"></path>
        </g>
    </g>
</svg>